<svg id="Layer_1" data-name="Layer 1" xmlns="http://www.w3.org/2000/svg" viewBox="0 0 79.51 22.59"><title>logo</title><path d="M5.26,25.79H1.44V9.08H5v1.61a3.66,3.66,0,0,1,3.31-1.9,5.55,5.55,0,0,1,5.45,5.83,5.57,5.57,0,0,1-5.45,5.86,4,4,0,0,1-3.1-1.25ZM7.58,12.28a2.41,2.41,0,0,0-2.33,2.4,2.29,2.29,0,0,0,2.33,2.26,2.33,2.33,0,1,0,0-4.66Z" transform="translate(-1.44 -3.2)"/><path d="M17.09,3.2a2.19,2.19,0,0,1,2.28,2.16,2.23,2.23,0,0,1-2.28,2.18,2.27,2.27,0,0,1-2.3-2.18A2.23,2.23,0,0,1,17.09,3.2Zm-1.9,17.07H19V9.08H15.19Z" transform="translate(-1.44 -3.2)"/><path d="M25.87,9.08h2.35v2.81H25.87v8.38H22.1V11.89h-2V9.08h2V7.18l3.77-2.1Z" transform="translate(-1.44 -3.2)"/><path d="M33,20.27H29.23V3.2H33v7.63c.38-1.42,2.16-2,3.14-2,3,0,4.46,2,4.46,5.52v6H36.84V14.44A1.86,1.86,0,0,0,35,12.49a1.83,1.83,0,0,0-2,1.9Z" transform="translate(-1.44 -3.2)"/><path d="M53.3,9.08,46.39,25.79h-4l2.81-7L40.8,9.08H45l2.18,5.42,2.09-5.42Z" transform="translate(-1.44 -3.2)"/><path d="M55.22,16.07a2.22,2.22,0,0,1,2.3,2.18,2.24,2.24,0,0,1-2.3,2.23A2.22,2.22,0,0,1,53,18.25,2.19,2.19,0,0,1,55.22,16.07Z" transform="translate(-1.44 -3.2)"/><path d="M67.18,9.08H71V20.27H67.18V19a3.74,3.74,0,0,1-3.1,1.49,5.55,5.55,0,0,1-5.45-5.83,5.58,5.58,0,0,1,5.45-5.86,3.87,3.87,0,0,1,3.1,1.49ZM64.85,17a2.33,2.33,0,1,0-2.33-2.33A2.35,2.35,0,0,0,64.85,17Z" transform="translate(-1.44 -3.2)"/><path d="M81,6.83H79.51c-.89,0-1.54.58-1.56,1.85v.41H80.3v2.81H78v8.38H74.14V11.89H72V9.08h2.09V8.68c0-3.62,2.09-5.47,5.38-5.47H81Z" transform="translate(-1.44 -3.2)"/><path d="M29.23,3.2" transform="translate(-1.44 -3.2)" fill="red" stroke="#000" stroke-miterlimit="10" stroke-width="0.25"/><path d="M22.1,7.12" transform="translate(-1.44 -3.2)" fill="red" stroke="#000" stroke-miterlimit="10" stroke-width="0.25"/></svg>